#!OML:ASF F:\VICON\USERDATA\INSTALL\rory3\rory3.ASF
:FULLY-SPECIFIED
:DEGREES
156
root 4.53683 17.7311 8.11463 -3.07272 -3.83615 -4.85497
lowerback 9.69048 1.6503 4.72733
upperback 0.0151919 2.80648 1.44033
thorax -5.27019 1.27837 -1.54289
lowerneck -16.0516 -3.74481 -1.91235
upperneck 21.9888 -4.97831 0.996561
head 9.6873 -2.35791 0.0172773
rclavicle -1.45439e-014 1.54058e-015
rhumerus -23.8865 -12.9673 -79.394
rradius 30.6133
rwrist 0.250813
rhand -19.2311 23.7563
rfingers 7.12502
rthumb 7.08206 -6.10522
lclavicle -1.45439e-014 1.54058e-015
lhumerus -39.7505 0.921859 86.2963
lradius 23.7175
lwrist 4.86539
lhand -28.9065 17.4452
lfingers 7.12502
lthumb -2.26144 47.413
rfemur 11.2103 5.5633 30.1927
rtibia 38.5684
rfoot -10.2119 -0.548196
rtoes -7.16163
lfemur -23.2352 -4.32766 -14.379
ltibia 22.5146
lfoot -1.08431 -3.16865
ltoes -6.08509
157
root 4.55382 17.7388 8.33488 -3.29031 -3.5729 -4.33546
lowerback 9.81054 1.61663 4.13452
upperback -0.0911519 2.70286 1.37597
thorax -5.47888 1.23617 -1.2714
lowerneck -16.1455 -3.75039 -2.03916
upperneck 22.3404 -4.97304 1.05219
head 9.83472 -2.35654 0.0526128
rclavicle 2.02854e-014 -6.5102e-015
rhumerus -24.4163 -13.735 -79.0136
rradius 30.246
rwrist 0.828268
rhand -19.3502 24.1744
rfingers 7.12502
rthumb 6.96713 -5.69095
lclavicle 2.02854e-014 -6.5102e-015
lhumerus -39.9199 1.26208 86.088
lradius 23.5105
lwrist 4.1682
lhand -28.8341 17.4637
lfingers 7.12502
lthumb -2.19151 47.4322
rfemur 10.4273 5.05221 29.3798
rtibia 40.9879
rfoot -7.29994 -0.163891
rtoes -5.21407
lfemur -22.9182 -4.37377 -15.1471
ltibia 23.4161
lfoot -0.346449 -3.97123
ltoes -5.34278
158
root 4.57007 17.7342 8.5581 -3.47216 -3.37845 -4.15394
lowerback 9.66802 1.64146 3.94722
upperback -0.100753 2.70628 1.35506
thorax -5.41578 1.24419 -1.18404
lowerneck -16.0349 -3.88334 -2.01304
upperneck 22.4444 -5.14758 0.956785
head 9.85019 -2.44643 -0.00692434
rclavicle -2.08522e-014 -3.37934e-015
rhumerus -24.9129 -14.6358 -78.6307
rradius 30.0442
rwrist 1.08496
rhand -19.3227 23.8538
rfingers 7.12502
rthumb 6.99366 -6.01062
lclavicle -2.08522e-014 -3.37934e-015
lhumerus -39.7764 1.51595 85.8317
lradius 22.916
lwrist 3.42449
lhand -28.3913 18.8034
lfingers 7.12502
lthumb -1.76384 48.7758
rfemur 9.47056 4.45684 28.8501
rtibia 43.4997
rfoot -3.8741 0.319376
rtoes -2.63819
lfemur -22.5942 -4.10442 -15.6067
ltibia 24.4459
lfoot -0.824008 -4.49195
ltoes -7.34228
159
root 4.58396 17.7266 8.77558 -3.57656 -3.25105 -3.87711
lowerback 9.53652 1.6734 3.62725
upperback -0.140397 2.70367 1.2797
thorax -5.39396 1.25086 -1.07941
lowerneck -15.8379 -3.94406 -1.83563
upperneck 22.3389 -5.2452 0.811177
head 9.76735 -2.49602 -0.0941006
rclavicle -2.85653e-014 -5.31749e-015
rhumerus -25.4683 -15.5408 -78.3024
rradius 29.8934
rwrist 1.55108
rhand -19.1973 23.7893
rfingers 7.12502
rthumb 7.11474 -6.07114
lclavicle -2.85653e-014 -5.31749e-015
lhumerus -39.5382 1.83897 85.4322
lradius 22.4129
lwrist 2.72228
lhand -27.4073 20.6537
lfingers 7.12502
lthumb -0.813505 50.6319
rfemur 8.3132 3.92212 28.1981
rtibia 45.9894
rfoot 0.0323388 0.985893
rtoes -1.20571
lfemur -22.3321 -3.61725 -16.1843
ltibia 25.5101
lfoot -1.99099 -4.65208
ltoes -9.2754
160
root 4.59885 17.7371 8.9832 -3.6023 -3.20899 -3.77093
lowerback 9.64829 1.67236 3.51827
upperback -0.303745 2.69874 1.23399
thorax -5.63176 1.24451 -1.07273
lowerneck -15.8368 -3.92585 -1.74133
upperneck 22.4463 -5.24725 0.808095
head 9.8023 -2.48867 -0.112227
rclavicle 6.80944e-015 7.05686e-015
rhumerus -26.2372 -16.3068 -77.9839
rradius 29.8538
rwrist 2.08776
rhand -19.0978 24.0057
rfingers 7.12502
rthumb 7.21073 -5.85144
lclavicle 6.80944e-015 7.05686e-015
lhumerus -39.6892 2.21373 85.0011
lradius 22.5405
lwrist 2.06038
lhand -25.8018 23.6997
lfingers 7.12502
lthumb 0.737208 53.6781
rfemur 6.97258 3.49566 27.7756
rtibia 48.3986
rfoot 4.33291 1.50709
rtoes -1.20052
lfemur -22.0824 -3.13907 -16.5454
ltibia 26.4919
lfoot -3.45368 -5.13898
ltoes -9.22057
161
root 4.61835 17.7599 9.19472 -3.72996 -3.21608 -3.73767
lowerback 9.63366 1.65253 3.5368
upperback -0.242659 2.67126 1.22839
thorax -5.5592 1.23239 -1.08341
lowerneck -16.213 -3.89773 -1.77655
upperneck 22.7348 -5.22927 0.926048
head 9.98046 -2.464 -0.0745931
rclavicle -3.99666e-015 9.61621e-015
rhumerus -26.4956 -17.0514 -77.7549
rradius 29.5726
rwrist 2.34088
rhand -18.8051 23.7202
rfingers 7.12502
rthumb 7.49327 -6.12707
lclavicle -3.99666e-015 9.61621e-015
lhumerus -39.8185 2.71821 84.5766
lradius 22.9342
lwrist 1.96604
lhand -23.6972 25.9672
lfingers 7.12502
lthumb 2.76979 55.929
rfemur 5.75259 3.20367 27.4699
rtibia 50.7677
rfoot 7.24872 1.68313
rtoes 2.23486
lfemur -21.6346 -2.54434 -16.8645
ltibia 27.2374
lfoot -3.17912 -6.20415
ltoes -5.83257
162
root 4.63328 17.7835 9.40448 -3.96154 -3.30568 -3.68322
lowerback 9.75814 1.67354 3.52071
upperback -0.120114 2.69783 1.20884
thorax -5.49896 1.24789 -1.10061
lowerneck -16.2563 -3.94316 -1.8418
upperneck 22.5222 -5.30893 1.08246
head 9.92077 -2.48945 -0.0186443
rclavicle 5.54792e-015 -1.58531e-014
rhumerus -26.5545 -17.7374 -77.5642
rradius 29.1346
rwrist 2.17361
rhand -18.398 23.6783
rfingers 7.12502
rthumb 7.88624 -6.15455
lclavicle 5.54792e-015 -1.58531e-014
lhumerus -39.6932 3.27923 84.0923
lradius 22.8527
lwrist 2.0021
lhand -23.2895 25.1789
lfingers 7.12502
lthumb 3.1635 55.1351
rfemur 4.56142 3.07036 27.2494
rtibia 53.1455
rfoot 10.4559 1.37991
rtoes 5.8927
lfemur -20.9111 -2.07599 -17.1336
ltibia 27.6831
lfoot -3.49548 -6.92414
ltoes -1.85629
163
root 4.64489 17.7981 9.60632 -4.1907 -3.48821 -3.29073
lowerback 9.94355 1.73471 3.07094
upperback -0.0593077 2.72924 1.12874
thorax -5.55436 1.27408 -0.942563
lowerneck -16.0817 -3.92823 -1.86837
upperneck 22.0779 -5.29714 1.18228
head 9.73385 -2.48012 0.0305021
rclavicle 1.2691e-015 -2.78547e-014
rhumerus -26.9564 -18.1821 -77.4389
rradius 29.1543
rwrist 2.05025
rhand -18.1927 23.5297
rfingers 7.12502
rthumb 8.08433 -6.29566
lclavicle 1.2691e-015 -2.78547e-014
lhumerus -39.5943 3.71866 83.7433
lradius 22.654
lwrist 2.11713
lhand -25.2401 23.1038
lfingers 7.12502
lthumb 1.27971 53.0797
rfemur 3.25137 3.10653 26.7028
rtibia 55.6013
rfoot 13.7429 0.777458
rtoes 11.6212
lfemur -20.0521 -1.85877 -17.7002
ltibia 27.9274
lfoot -3.99149 -6.71651
ltoes -2.17375
